<?xml version="1.0" encoding="UTF-8"?>
<!DOCTYPE svg PUBLIC "-//W3C//DTD SVG 1.1//EN" "http://www.w3.org/Graphics/SVG/1.1/DTD/svg11.dtd">
<!-- Creator: CorelDRAW -->
<svg xmlns="http://www.w3.org/2000/svg" xml:space="preserve" width="2.60417in" height="2.60417in" version="1.1" style="shape-rendering:geometricPrecision; text-rendering:geometricPrecision; image-rendering:optimizeQuality; fill-rule:evenodd; clip-rule:evenodd"
viewBox="0 0 2604.17 2604.17"
 xmlns:xlink="http://www.w3.org/1999/xlink"
 xmlns:xodm="http://www.corel.com/coreldraw/odm/2003">
 <defs>
  <style type="text/css">
   <![CDATA[
    .fil2 {fill:#0A1F34}
    .fil0 {fill:#64E3F6}
    .fil1 {fill:#FDFDFD}
   ]]>
  </style>
 </defs>
 <g id="Layer_x0020_1">
  <metadata id="CorelCorpID_0Corel-Layer"/>
  <g id="_1435755275360">
   <path class="fil0" d="M1235.25 68.82c-281.76,20.28 -523.75,123.22 -732.52,287.17l-125.2 114.16 -72.45 82.42c-23.76,29.29 -44.96,58.93 -67.33,91.1 -246.26,354.03 -289.98,836.99 -91.07,1231.16 54.11,107.22 146.38,235.38 233.05,316.07 128.4,119.53 268.87,212.9 437.69,273.47 338.9,121.6 722.41,91.83 1039.94,-70.83 72.12,-36.94 134.35,-78.14 193.13,-120.15 14.41,-10.3 31.11,-23.26 43.71,-33.75 163.2,-135.96 288.49,-285.58 379.37,-486.65 68.77,-152.15 113.45,-333.52 108.83,-521.66 -16.72,-680.22 -620.63,-1214.78 -1347.13,-1162.5z"/>
   <path class="fil1" d="M1024.93 479.59c-30.43,17.83 -61.23,36.19 -89.2,56l-140.54 119.84c-130.31,147.69 -215.93,319.41 -233.22,537.03 -14.77,185.84 30.84,342.49 105.54,481.98 43.71,81.63 72.36,110.36 124.09,171.44 31.38,37.06 121.01,114.96 157.46,135.36 27.2,16.31 53.65,33.8 84.4,48.54 22.78,10.93 70.99,29.15 88,42.8 26.43,3.9 76.92,25.11 110.54,33.24 40.23,9.72 78.46,15.16 120.31,19.43 42.19,-1.27 84.74,2.35 127.92,0.63 38.59,-1.54 80,-13.03 116.6,-12.09 77.54,-21.85 136.5,-37.22 206.56,-70.11 32.43,-15.22 61.38,-32.69 90.14,-50.58 30.72,-19.11 55.22,-37.79 82.18,-57.7l102.73 -98.72c99.65,-109.8 151.35,-216.56 192.82,-356.32 2.39,-8.04 2.87,-10.5 5.06,-19.76 3.01,-12.73 0.57,-12.9 9.77,-19.59 3.65,-55.62 14.27,-108.74 15,-167.48 0.71,-57.1 -4.22,-115.16 -13.66,-170.13 -28.42,-165.46 -91.78,-285.22 -187.02,-407.93 -7.35,-9.47 -14.06,-14.91 -21.43,-24.27 -21.99,-27.93 -63.99,-68.02 -92.81,-90.21 -35.37,-27.24 -125.76,-93.63 -163.86,-109.8 -22.64,-5.18 -63.15,-26.2 -88.5,-35.56 -93.72,-34.59 -210.9,-52.33 -313.54,-52 -72.77,0.24 -152.16,11 -217.31,28.57 -89.73,24.19 -110.95,42.73 -178.01,67.39z"/>
   <path class="fil2" d="M1385.77 469.58c-418.37,21.04 -763.74,381.23 -737.99,830.07 24.09,419.75 379.92,765.91 828.8,740.77 414.99,-23.24 763.89,-387.06 735.82,-833.9 -26.55,-422.63 -374.96,-759.66 -826.63,-736.94z"/>
   <path class="fil2" d="M1352.29 2125.27c-41.85,-4.27 -80.07,-9.7 -120.31,-19.43 -33.62,-8.13 -84.11,-29.33 -110.54,-33.24 -294.91,83.7 -595.15,-28.47 -746.28,-285.44 -153.55,-261.09 -132.3,-611.91 -2.62,-881.99 183.93,-383.06 604.26,-628.22 1043.74,-573.98 120.14,14.83 335.26,77.2 405.99,140.01 38.11,16.18 128.49,82.56 163.86,109.8 28.82,22.19 70.81,62.29 92.81,90.21 7.37,9.36 14.08,14.8 21.43,24.27 95.24,122.72 158.6,242.47 187.02,407.93 9.44,54.97 14.37,113.03 13.66,170.13 -0.73,58.74 -11.36,111.86 -15,167.48 -11.86,231.39 -160.33,501.93 -297.21,668.53l-75.27 86.7c-17.91,15.17 -27.32,24.29 -41.54,39.42l-40.7 40.86c24.74,-9.38 60.37,-33.84 82.94,-47.93 27.59,-17.22 52.23,-34.74 77.06,-53.22 52.16,-38.82 99.28,-81 139.76,-124.15l45.61 -49.46c6.79,-7.64 10.38,-10.09 16.92,-18.18 65.24,-80.7 107.57,-139.01 157.67,-239.98 131.25,-264.54 160.75,-569.75 46.06,-862.94 -23.05,-58.93 -55.93,-126.82 -86.91,-173.62 -26.03,-39.33 -53.11,-78.96 -82.77,-114.22 -38.98,-46.33 -83.24,-95.56 -131.08,-132.91 -6.96,-5.43 -9.89,-9.31 -16.69,-14.92 -7.34,-6.06 -10.17,-7.52 -19.6,-15.62 -139.6,-120.01 -371.12,-209.97 -555.35,-237.06 -295.34,-43.43 -598.56,28.28 -838.42,186.8 -46.51,30.74 -72.45,51.69 -113.16,83.89 -7.22,5.72 -9.49,9.02 -16.45,15.12l-34.61 32.29c-46.68,47.48 -68.75,63.93 -112.26,120.06 -80.44,103.79 -133.35,191.5 -189.55,338.44 -112.53,294.24 -77.78,693.39 106.61,946.14 8.93,12.24 20.54,27.38 29.45,37.49l63.17 66.9c19.06,23.19 84.51,70.6 112.7,87.98 189.85,117.07 419.2,147.8 647.56,88.32 46.48,-12.11 162.2,-46.99 192.27,-70.5z"/>
   <path class="fil0" d="M1121.45 2072.61c-17.01,-13.66 -65.22,-31.88 -88,-42.8 -30.74,-14.75 -57.2,-32.23 -84.4,-48.54 -12.7,10.47 -65.47,3.8 -80.92,2.36 -24.46,-2.29 -49.19,-6.5 -72.06,-11.79 -88.02,-20.37 -157.76,-60.92 -222.46,-115.67 -19.8,-16.75 -66.19,-72.67 -79.27,-93.07 -149.7,-233.35 -147.65,-551.43 -18.89,-811.55 48,-96.99 97.12,-156.76 158.18,-225.27 42.2,-47.35 110.44,-104.03 161.44,-137.79 40.57,-26.86 173.76,-102.94 229.87,-108.89 67.06,-24.66 88.28,-43.2 178.01,-67.39 65.15,-17.57 144.54,-28.33 217.31,-28.57 102.64,-0.33 219.82,17.41 313.54,52 25.35,9.36 65.86,30.39 88.5,35.56 -70.73,-62.81 -285.85,-125.18 -405.99,-140.01 -439.48,-54.24 -859.81,190.92 -1043.74,573.98 -129.68,270.09 -150.93,620.9 2.62,881.99 151.13,256.97 451.37,369.14 746.28,285.44z"/>
   <path class="fil2" d="M949.05 1981.26c-36.44,-20.41 -126.07,-98.3 -157.46,-135.36 -51.72,-61.09 -80.38,-89.81 -124.09,-171.44 -74.69,-139.49 -120.31,-296.14 -105.54,-481.98 17.29,-217.62 102.92,-389.35 233.22,-537.03l140.54 -119.84c27.97,-19.82 58.76,-38.17 89.2,-56 -56.11,5.95 -189.31,82.03 -229.87,108.89 -51,33.76 -119.24,90.44 -161.44,137.79 -61.06,68.51 -110.18,128.28 -158.18,225.27 -128.75,260.13 -130.81,578.2 18.89,811.55 13.08,20.39 59.48,76.32 79.27,93.07 64.7,54.76 134.45,95.3 222.46,115.67 22.87,5.29 47.6,9.5 72.06,11.79 15.45,1.44 68.22,8.11 80.92,-2.36z"/>
   <path class="fil0" d="M1370.21 1006.64c16.14,9.11 44.43,11.06 63.51,17.82 20.51,7.27 41.71,14.03 57.77,27.36 -0.56,0.69 -1.52,0.77 -1.83,1.92l-36.84 23.52c-14.11,8.67 -25.62,15.7 -39.14,24.17l-118.3 71.81c-15.22,9.24 -23.32,20.11 -41.76,10.21 -25.39,-13.64 -56.98,-41.42 -85.97,-25.46 -17.67,9.72 -72.17,37.37 -77.73,49.15 -6.95,14.71 -6.01,103.69 3.06,115.63 5.3,6.98 65.64,44.72 76.78,50.3 28.78,14.4 58.59,-20.49 85.1,-30.4l136.16 104.51c23.43,18.76 34.08,14.34 34,51.65 -0.21,95.23 -3.62,71.67 63.25,115.13 28.47,18.5 32.78,20.81 64.02,2.89 82.83,-47.52 73.86,-30.33 73.35,-107.47 -0.33,-50.17 -3.94,-41.23 25.39,-64.94 9.77,-7.89 13.47,-14.56 22.9,-22.71l73.67 -63.83c19.16,-1.84 17.39,36.89 74.02,3.87 42.15,-24.57 41.53,-15.39 41.52,-84.69 -0.04,-30.7 -4.49,-30.86 -26.14,-43.78 -50.96,-30.4 -46.13,-28.64 -94.28,0.13 -58.22,34.79 -7.56,70.43 -37.3,103.42l-112.67 100.23c-19.57,-7.11 -52.04,-34.41 -69.72,-32.78 -19.13,1.76 -48.88,29.83 -71.06,35.3l-160.14 -125.35c-5.71,-8.94 -6.42,-75.53 -0.47,-85.6 1.81,-3.07 221.77,-139.22 238.04,-145.48 36.88,30.67 59.05,109.21 69.62,170.39 0.61,-0.84 1.35,-3.24 1.58,-2.7l11.85 -45.89c30.94,-120.56 91.15,-171.91 221.78,-197.26 -62.37,-12.43 -131.97,-37.85 -162.52,-73.49 -53.26,-62.13 -51.59,-100.96 -66.74,-157.82l-5.94 -14.4c-27.63,134.37 -62.56,218.37 -228.79,244.65z"/>
   <path class="fil0" d="M2098.17 1309.15c-28.55,219.98 -179.16,398.89 -377.98,489.51 -242.87,110.7 -511.28,39.76 -669.5,-99.19 -10.2,-8.96 -19.6,-14.33 -28.7,-24.16 -67.44,-72.8 -112.58,-123.67 -153.93,-229.55 -67.34,-172.48 -59.16,-367.65 26.45,-536.14 32.84,-64.63 87.44,-137.89 143.54,-183.76 56.81,-46.46 131.61,-99.13 205.45,-119.54 -83.8,8.22 -199.7,89.28 -266.84,142.71 -17.46,13.9 -68.72,71.89 -84.05,91.94 -17.63,23.04 -31.44,44.87 -47.61,72.02 -26.9,45.19 -54.56,109.01 -69.11,167.06 -54.68,218.06 -4.17,428.15 126.96,598.29 95.75,124.23 251.84,217.57 407.13,244.26 265.21,45.59 514.34,-62.73 662.67,-265.65 57.99,-79.32 127.48,-216.41 125.54,-347.81z"/>
   <path class="fil2" d="M1596.81 2113.81l-78.37 53.43c-27.47,16.3 -55.15,31.2 -84.63,45.66 -58.98,28.94 -118.5,54.37 -185.29,75.02 -71.49,22.11 -137.99,36.14 -215.39,44.69 -141.6,15.65 -151.25,-3.5 -249.51,-5.56 53.76,20.26 100.75,41.57 161.81,58.29 190.93,52.25 388.99,43.68 565.68,-35.5 161.45,-72.35 261.97,-161.34 375.56,-289.56 25.1,-28.34 48.3,-62.79 71.33,-94.14l17.46 -24.38c3.33,-8.19 3.44,-1.39 0.23,-6.35 -26.96,19.91 -51.46,38.59 -82.18,57.7 -28.76,17.89 -57.7,35.35 -90.14,50.58 -70.06,32.89 -129.02,48.26 -206.56,70.11z"/>
   <path class="fil0" d="M1292.08 689.03c-205.33,48.71 -350.28,248.28 -374.15,445.43 -5.76,47.62 44.04,51.35 56.98,20.81 9.83,-23.19 16.45,-61.63 27.09,-88.93 51.96,-133.33 166.71,-238.88 307.51,-276.71 33.65,-9.04 60.57,-19.34 54.47,-61.25 -5.05,-34.63 -33.72,-48.41 -71.9,-39.35z"/>
  </g>
 </g>
</svg>
